# xmcd
#
# Track frame offsets:
#	150
#	20870
#	39040
#	56313
#	72577
#	87723
#	105481
#	122682
#	141574
#	156708
#	174341
#	191478
#	209546
#	228193
#
# Disc length: 3267 seconds
#
# Revision: 1
# Processed by: cddbd v1.5.2PL0 Copyright (c) Steve Scherf et al.
# Submitted via: audiograbber 1.81.02
#
DISCID=ca0cc10e
DTITLE=Carrie Underwood - Some Hearts
DYEAR=2005
DGENRE=Country
TTITLE0=Wasted
TTITLE1=Don't Forget to Remember Me
TTITLE2=Some Hearts
TTITLE3=That's Where It Is
TTITLE4=Before He Cheats
TTITLE5=The Night Before (Life Goes On)
TTITLE6=Whenever You Remember
TTITLE7=Lessons Learned
TTITLE8=I Ain't In Checotah Anymore
TTITLE9=We're Young and Beautiful
TTITLE10=Jesus, Take the Wheel
TTITLE11=I Just Can't Live a Lie
TTITLE12=Starts With Goodbye
TTITLE13=Inside Your Heaven
EXTD=
EXTT0=
EXTT1=
EXTT2=
EXTT3=
EXTT4=
EXTT5=
EXTT6=
EXTT7=
EXTT8=
EXTT9=
EXTT10=
EXTT11=
EXTT12=
EXTT13=
PLAYORDER=
